# xmcd CD database file
#
# Track frame offsets:
#	182
#	50305
#	69475
#	91905
#
# Disc length: 1412 seconds
#
# Revision: 0
# Processed by: cddbd v1.5.1PL0 Copyright (c) Steve Scherf et al.
# Submitted via: CDex 1.51
#
DISCID=2a058204
DTITLE=Catharsis - 32 mars
DYEAR=1972
DGENRE=New Age
TTITLE0=32 mars
TTITLE1=Masq
TTITLE2=Les Chevrons
TTITLE3=32 mars
EXTD=YEAR: 1972
EXTT0=
EXTT1=
EXTT2=
EXTT3=
PLAYORDER=
